<svg width="18" height="10" viewBox="0 0 18 10" fill="none" xmlns="http://www.w3.org/2000/svg">
<path d="M8.98588 9.11821C8.686 9.11879 8.39537 9.01435 8.16446 8.82301L0.463656 2.40567C0.20155 2.18782 0.0367216 1.87476 0.005431 1.53538C-0.0258596 1.196 0.0789508 0.858085 0.296805 0.595979C0.514659 0.333874 0.827711 0.169046 1.16709 0.137755C1.50648 0.106465 1.84439 0.211274 2.10649 0.429128L8.98588 6.17907L15.8653 0.634484C15.9966 0.527872 16.1476 0.448256 16.3098 0.400214C16.4719 0.352171 16.642 0.336649 16.8101 0.35454C16.9783 0.37243 17.1413 0.42338 17.2897 0.504461C17.4381 0.585543 17.569 0.695158 17.675 0.827004C17.7925 0.958972 17.8815 1.11379 17.9364 1.28176C17.9914 1.44974 18.011 1.62724 17.9941 1.80316C17.9773 1.97907 17.9243 2.14961 17.8384 2.30408C17.7526 2.45856 17.6358 2.59364 17.4953 2.70087L9.79447 8.90002C9.55692 9.06111 9.27223 9.13793 8.98588 9.11821V9.11821Z" fill="#787878"/>
</svg>
