<svg width="25" height="24" viewBox="0 0 25 24" fill="none" xmlns="http://www.w3.org/2000/svg">
<path d="M19.8995 7.33371C19.7555 7.08424 19.5493 6.87634 19.301 6.73029C19.0528 6.58425 18.7709 6.50504 18.4829 6.50041H7.81654L7.33322 4.61714C7.28439 4.43534 7.17545 4.27543 7.02413 4.16346C6.87282 4.05149 6.68805 3.99404 6.49992 4.00049H4.83331C4.6123 4.00049 4.40034 4.08828 4.24407 4.24456C4.08779 4.40083 4 4.61279 4 4.83379C4 5.0548 4.08779 5.26676 4.24407 5.42303C4.40034 5.57931 4.6123 5.6671 4.83331 5.6671H5.86661L8.16653 14.2168C8.21536 14.3986 8.32431 14.5585 8.47562 14.6705C8.62694 14.7825 8.81171 14.8399 8.99984 14.8335H16.4996C16.6535 14.833 16.8042 14.7899 16.9351 14.709C17.066 14.6281 17.172 14.5126 17.2412 14.3752L19.9745 8.90866C20.0929 8.66035 20.1481 8.38657 20.135 8.11176C20.1219 7.83694 20.041 7.56965 19.8995 7.33371Z" fill="#1D1905"/>
<path d="M8.58199 18.9999C9.27232 18.9999 9.83195 18.4403 9.83195 17.75C9.83195 17.0596 9.27232 16.5 8.58199 16.5C7.89166 16.5 7.33203 17.0596 7.33203 17.75C7.33203 18.4403 7.89166 18.9999 8.58199 18.9999Z" fill="#1D1905"/>
<path d="M16.916 18.9999C17.6063 18.9999 18.1659 18.4403 18.1659 17.75C18.1659 17.0596 17.6063 16.5 16.916 16.5C16.2256 16.5 15.666 17.0596 15.666 17.75C15.666 18.4403 16.2256 18.9999 16.916 18.9999Z" fill="#1D1905"/>
</svg>
