<svg width="94" height="40" viewBox="0 0 94 40" fill="none" xmlns="http://www.w3.org/2000/svg">
<g clip-path="url(#clip0_91:289)">
<path d="M25.2562 13.1912C24.3117 12.7384 23.3137 12.7562 22.3704 13.2426C20.6486 14.1304 20.2878 15.19 19.9695 16.1249C19.7406 16.7973 19.543 17.3778 18.8392 17.9367C18.8389 17.9369 18.8386 17.9371 18.8382 17.9374C18.1346 18.4961 17.5242 18.557 16.8175 18.6274C15.8348 18.7254 14.721 18.8364 13.4665 20.312C12.7784 21.1209 12.5347 22.0892 12.7619 23.1122C13.0676 24.4893 14.2025 25.7479 15.1227 26.1689C16.2279 26.6753 17.5946 26.8673 19.0749 26.7242C20.9671 26.5417 22.8417 25.8102 24.2187 24.7169C24.2192 24.7164 24.22 24.7158 24.2205 24.7154C25.5981 23.6215 26.7365 21.961 27.3435 20.1597C27.8187 18.7496 27.9417 17.3752 27.6992 16.1852C27.4974 15.1925 26.5284 13.8012 25.2562 13.1912ZM26.6249 16.4039C26.826 17.3906 26.7123 18.6 26.3046 19.8095C25.7632 21.4159 24.7551 22.8911 23.5386 23.8569L23.5385 23.857C23.5379 23.8575 23.5374 23.8579 23.5368 23.8583C22.3212 24.8235 20.6566 25.4703 18.9695 25.6331C17.6997 25.7558 16.4957 25.5921 15.5791 25.1721C15.0164 24.9147 14.0705 23.9484 13.8321 22.8747C13.6802 22.1904 13.8381 21.5672 14.3016 21.0223C14.523 20.7619 14.7337 20.5573 14.938 20.3951C15.627 19.848 16.2406 19.7867 16.9263 19.7184C17.6939 19.6419 18.5639 19.5552 19.5198 18.7962C19.5201 18.7959 19.5205 18.7956 19.521 18.7952C20.477 18.0362 20.7588 17.2085 21.0073 16.4783C21.2952 15.6326 21.5438 14.9022 22.8728 14.2171C23.5081 13.8896 24.1504 13.877 24.7821 14.1799C25.7743 14.6555 26.5015 15.7966 26.6249 16.4039Z" fill="#1D1905"/>
<path d="M21.381 18.6864C20.7698 19.8481 20.0139 20.1006 19.4875 20.1079L19.5026 21.2042C20.1456 21.1953 20.7418 20.974 21.2603 20.5624C21.6808 20.2286 22.0501 19.7694 22.3512 19.1969L21.381 18.6864Z" fill="#1D1905"/>
</g>
<rect x="9.05751" y="8.22353" width="22.5529" height="23.5529" rx="11.2765" stroke="#1D1905" stroke-width="1.44706"/>
<path d="M49.834 13.5C51.0873 13.5 52.1607 13.8133 53.054 14.44C53.9607 15.0533 54.6473 15.8933 55.114 16.96C55.594 18.0133 55.834 19.1933 55.834 20.5C55.834 21.8067 55.594 22.9933 55.114 24.06C54.6473 25.1133 53.9607 25.9533 53.054 26.58C52.1607 27.1933 51.0873 27.5 49.834 27.5H45.054C44.7073 27.5 44.414 27.3867 44.174 27.16C43.9473 26.92 43.834 26.6267 43.834 26.28V14.72C43.834 14.3733 43.9473 14.0867 44.174 13.86C44.414 13.62 44.7073 13.5 45.054 13.5H49.834ZM49.634 25.2C50.834 25.2 51.734 24.76 52.334 23.88C52.934 22.9867 53.234 21.86 53.234 20.5C53.234 19.14 52.9273 18.02 52.314 17.14C51.714 16.2467 50.8207 15.8 49.634 15.8H46.334V25.2H49.634ZM70.6109 20.5C70.6109 21.82 70.3175 23.0333 69.7309 24.14C69.1442 25.2333 68.3309 26.1 67.2909 26.74C66.2642 27.38 65.1042 27.7 63.8109 27.7C62.5175 27.7 61.3509 27.38 60.3109 26.74C59.2842 26.1 58.4775 25.2333 57.8909 24.14C57.3175 23.0333 57.0309 21.82 57.0309 20.5C57.0309 19.18 57.3175 17.9733 57.8909 16.88C58.4775 15.7733 59.2842 14.9 60.3109 14.26C61.3509 13.62 62.5175 13.3 63.8109 13.3C65.1042 13.3 66.2642 13.62 67.2909 14.26C68.3309 14.9 69.1442 15.7733 69.7309 16.88C70.3175 17.9733 70.6109 19.18 70.6109 20.5ZM68.0109 20.5C68.0109 19.6067 67.8309 18.8 67.4709 18.08C67.1109 17.3467 66.6109 16.7667 65.9709 16.34C65.3309 15.9133 64.6109 15.7 63.8109 15.7C62.9975 15.7 62.2709 15.9133 61.6309 16.34C61.0042 16.7533 60.5109 17.3267 60.1509 18.06C59.8042 18.7933 59.6309 19.6067 59.6309 20.5C59.6309 21.3933 59.8042 22.2067 60.1509 22.94C60.5109 23.6733 61.0042 24.2533 61.6309 24.68C62.2709 25.0933 62.9975 25.3 63.8109 25.3C64.6109 25.3 65.3309 25.0867 65.9709 24.66C66.6109 24.2333 67.1109 23.66 67.4709 22.94C67.8309 22.2067 68.0109 21.3933 68.0109 20.5ZM82.4466 13.48C82.7933 13.48 83.0733 13.5933 83.2866 13.82C83.5 14.0467 83.6066 14.34 83.6066 14.7V21.94C83.6066 23.0467 83.3733 24.0267 82.9066 24.88C82.44 25.7333 81.7866 26.4 80.9466 26.88C80.1066 27.36 79.1466 27.6 78.0666 27.6C76.9866 27.6 76.02 27.36 75.1666 26.88C74.3266 26.4 73.6733 25.7333 73.2066 24.88C72.74 24.0267 72.5066 23.0467 72.5066 21.94V14.7C72.5066 14.3533 72.6266 14.0667 72.8666 13.84C73.1066 13.6 73.4133 13.48 73.7866 13.48C74.1066 13.48 74.3866 13.6 74.6266 13.84C74.8666 14.0667 74.9866 14.3533 74.9866 14.7V21.94C74.9866 22.58 75.1266 23.1533 75.4066 23.66C75.6866 24.1533 76.06 24.5333 76.5266 24.8C77.0066 25.0667 77.52 25.2 78.0666 25.2C78.64 25.2 79.1733 25.0667 79.6666 24.8C80.1733 24.5333 80.5733 24.1533 80.8666 23.66C81.1733 23.1533 81.3266 22.58 81.3266 21.94V14.7C81.3266 14.34 81.4266 14.0467 81.6266 13.82C81.8266 13.5933 82.1 13.48 82.4466 13.48Z" fill="#1D1905"/>
<defs>
<clipPath id="clip0_91:289">
<rect width="16.8134" height="16.8134" fill="white" transform="translate(11.9277 11.5933)"/>
</clipPath>
</defs>
</svg>
